<?xml version="1.0" encoding="UTF-8"?>
<svg width="246px" height="80px" viewBox="0 0 246 80" version="1.1" xmlns="http://www.w3.org/2000/svg" xmlns:xlink="http://www.w3.org/1999/xlink">
    <!-- Generator: Sketch 45.1 (43504) - http://www.bohemiancoding.com/sketch -->
    <title>logo</title>
    <desc>Created with Sketch.</desc>
    <defs>
        <path d="M43.4534038,44.3180679 C43.4534038,45.7082717 44.0862189,46.5508226 45.6893585,46.6350642 C46.1112302,45.034234 46.3643623,43.5176453 46.3643623,42.3380679 C46.3643623,41.495517 46.2377962,41.2848906 45.7315472,41.2848906 C44.4659019,41.2848906 43.4534038,42.5487094 43.4534038,44.3180679 Z M104.836604,41.3270189 C102.178777,41.3270189 99.1834415,47.3933585 97.6646792,52.4065358 C99.6896906,51.4376 101.714717,50.3422792 103.275653,48.7835774 C104.794415,47.2669887 105.933494,45.1184906 105.933494,42.9699774 C105.933494,41.8325434 105.595985,41.3270189 104.836604,41.3270189 Z M36.5768,60.7477585 C39.6986868,60.7477585 43.158083,54.5971623 45.0143547,48.9942038 C41.8080755,48.7414491 39.6143094,46.9299623 39.3611925,44.6972075 C36.1127245,48.3622943 34.4252226,54.3865208 34.4252226,57.5039547 C34.4252226,59.6945811 35.2689811,60.7477585 36.5768,60.7477585 Z M76.1489208,60.6635019 C80.5786415,60.6635019 84.8396075,51.6903698 84.8396075,45.4976302 C84.8396075,42.5487094 83.869283,41.8325434 82.8567849,41.8325434 C80.8739472,41.8325434 77.7942491,44.486566 75.2629736,51.8588679 C72.6895245,59.3575547 74.4614189,60.6635019 76.1489208,60.6635019 Z M15.1454038,63.1911547 C14.3860287,63.1911547 14.0907155,62.9383849 14.0907155,62.4328604 C14.0907155,62.2222189 14.1329026,61.8430792 14.3438415,61.1690415 C14.8922823,59.3154264 17.2969811,52.3222792 18.1407396,49.5839849 C18.6048,48.0674113 18.9844981,46.5086943 18.9844981,45.1606038 C18.9844981,43.8967849 18.6469887,43.0121057 18.6469887,42.4223245 C18.6469887,41.3691472 19.6173132,40.8636075 21.3891925,40.8636075 C23.0345208,40.8636075 23.6251472,41.2848906 23.9204679,44.9499774 C26.4517283,40.6951094 29.9111245,38.8836226 32.5689509,38.8836226 C34.8470943,38.8836226 35.6486642,40.2316981 35.6486642,41.3270189 C35.6486642,42.1695698 35.1424151,42.2959396 34.5096,42.4223245 C29.7001962,43.3912604 24.6376604,44.5286943 22.486083,51.1005736 C21.8110792,53.1227019 20.798566,57.546083 20.3766943,58.8520302 C19.4907472,61.5903094 17.0016755,63.1911547 15.1454038,63.1911547 Z M109.941328,63.1911547 C109.181947,63.1911547 108.886626,62.9383849 108.886626,62.4328604 C108.886626,62.2222189 108.928815,61.8430792 109.139758,61.1690415 C109.688196,59.3154264 112.092906,52.3222792 112.936664,49.5839849 C113.400725,48.0674113 113.780408,46.5086943 113.780408,45.1606038 C113.780408,43.8967849 113.442913,43.0121057 113.442913,42.4223245 C113.442913,41.3691472 114.413223,40.8636075 116.185117,40.8636075 C117.830445,40.8636075 118.421072,41.2848906 118.716377,44.9499774 C121.247653,40.6951094 124.707049,38.8836226 127.364875,38.8836226 C129.643019,38.8836226 130.444589,40.2316981 130.444589,41.3270189 C130.444589,42.1695698 129.938325,42.2959396 129.305509,42.4223245 C124.496106,43.3912604 119.43357,44.5286943 117.281992,51.1005736 C116.606989,53.1227019 115.594491,57.546083 115.172604,58.8520302 C114.286672,61.5903094 111.797585,63.1911547 109.941328,63.1911547 Z M124.917977,80 C121.121087,80 118.927321,78.6940495 118.927321,76.8825691 C118.927321,75.6187472 119.982008,75.028963 120.994521,75.028963 C123.019532,75.028963 123.39923,77.5144815 125.972679,77.5144815 C128.588317,77.5144815 130.318023,74.9025796 133.946174,58.9362868 C131.836785,61.674566 128.672694,63.6124226 126.183623,63.6124226 C123.357042,63.6124226 122.428906,61.1269132 122.428906,58.2622491 C122.428906,55.2712 123.441419,51.9431245 124.158611,50.1737811 C125.297675,47.3933585 126.816438,45.7925283 129.094566,45.7925283 C129.980513,45.7925283 130.275834,46.045283 130.275834,46.5086943 C130.275834,47.9831547 127.491442,54.2180075 127.491442,58.0516075 C127.491442,59.3154264 127.786747,59.6524528 128.461751,59.6524528 C131.077404,59.6524528 134.5368,54.5971623 135.675864,51.016317 C136.055547,49.8367547 137.194626,45.6240151 137.447758,44.7814642 C138.207125,42.3801962 140.358702,40.7793509 142.34154,40.7793509 C143.100906,40.7793509 143.396226,41.0321208 143.396226,41.5797736 C143.396226,41.7904151 143.354038,42.0853132 143.143094,42.8014792 C142.510279,45.034234 141.20246,48.3622943 140.485268,51.016317 C138.6712,57.840966 137.827442,61.1690415 135.718053,69.5102687 C133.819608,77.0510792 130.57114,80 124.917977,80 Z M56.4050415,63.3596679 C53.0722113,63.3596679 49.8659472,61.7166943 49.8659472,58.5571321 C49.8659472,56.7877887 50.8784453,55.6503396 52.4393962,55.6503396 C53.4940981,55.6503396 54.2112755,56.1558642 54.2112755,57.2511849 L54.2112755,58.8099019 C54.2112755,60.0315925 55.055034,60.7898868 56.4894189,60.7898868 C58.8097509,60.7898868 60.6660075,58.7256453 60.6660075,56.3665057 C60.6660075,52.0695094 54.6753509,50.6371774 54.2956528,45.6661434 C52.9456453,46.5929509 51.7222038,47.5197434 50.4987623,48.1095245 C49.2753208,54.7656604 43.9596528,63.3175396 36.450234,63.3175396 C32.3580226,63.3175396 29.1517434,60.7477585 29.1517434,55.9452377 C29.1517434,50.6793057 33.0752151,43.475517 39.7830642,42.4644528 C40.837766,40.4423396 43.031517,38.8836226 45.7315472,38.8836226 C49.1909434,38.8836226 50.7940679,41.4534038 50.7940679,45.5818868 C52.7769057,44.5286943 54.9284679,42.5065811 56.2363019,41.3691472 C57.9238038,39.9368151 60.1175698,38.7151094 63.070717,38.7151094 C66.0238642,38.7151094 68.6395019,39.9789434 68.6395019,41.8746717 C68.6395019,43.054234 67.6269887,43.6861434 66.5723019,43.6861434 C64.4207245,43.6861434 64.2519698,41.200634 61.7628981,41.200634 C60.2863245,41.200634 59.442566,42.0853132 59.442566,43.6019019 C59.442566,47.8567698 66.0660528,48.9099472 66.0660528,54.849917 C66.0660528,59.9473358 61.130083,63.3596679 56.4050415,63.3596679 Z M62.9019623,80 C62.1003925,80 61.8472755,79.7051079 61.8472755,79.1995787 C61.8472755,78.9889416 61.8894642,78.6519221 62.1003925,77.9778838 L70.8754566,49.5839849 C71.4238943,47.7725132 71.8035774,46.5508226 71.8035774,44.9499774 C71.8035774,43.1806189 71.339517,42.1695698 71.339517,41.495517 C71.339517,40.5687245 72.2676528,40.0210566 73.8707774,40.0210566 C75.9379774,40.0210566 76.5286189,40.9478642 76.8239245,44.0652981 C78.6380075,40.8636075 81.5911396,38.8836226 84.3333434,38.8836226 C87.4552453,38.8836226 89.8599547,41.4534038 89.8599547,45.7925283 C89.8599547,49.0784604 88.5099321,52.9120604 86.3583698,56.1979925 C88.3833811,55.6082113 90.1552604,55.0184302 91.8005887,54.4286491 C92.8130868,48.1516528 98.2553208,39.0100075 105.174113,39.0100075 C107.83194,39.0100075 110.025706,40.358083 110.025706,43.1806189 C110.025706,47.0563472 105.891306,51.1848302 97.0318642,54.849917 C96.7787472,55.7345962 96.6943698,56.6614038 96.6943698,57.5039547 C96.6943698,59.399683 97.6646792,60.5371321 99.3100075,60.5371321 C102.642838,60.5371321 104.119411,56.0294943 105.891306,56.0294943 C106.313177,56.0294943 106.650687,56.2822491 106.650687,56.8720453 C106.650687,58.8520302 103.022536,63.4017962 98.2131321,63.4017962 C94.5849811,63.4017962 91.8005887,60.7898868 91.6740226,56.6614038 C89.3958792,57.4196981 86.9489962,58.1358642 84.2911547,58.8520302 C81.8864604,61.5060528 78.9333132,63.3175396 75.8114264,63.3175396 C73.912966,63.3175396 72.9004679,62.6435019 72.2254642,61.674566 L68.0910642,75.660874 C67.3738717,78.0621374 64.9691623,80 62.9019623,80 Z M1.13906974,63.1911547 C0.295314415,63.1911547 0,62.9383849 0,62.3907321 C0,62.1800906 0.0421877736,61.8430792 0.253126642,61.1690415 C3.20627019,51.6903698 7.08754566,39.5997887 9.02818264,32.7751396 C10.082877,29.0257962 12.9516453,18.9152151 14.7657192,12.7646189 C15.4829132,10.3633509 18.351683,8.42549434 20.6298264,8.42549434 C21.4313811,8.42549434 21.7267019,8.67824906 21.7267019,9.18377358 C21.7267019,9.39441509 21.6845132,9.77356981 21.4735698,10.4476075 L15.5672906,30.2053736 C18.6891774,31.1743094 22.5282717,31.7640906 25.9032906,31.7640906 C36.4080453,31.7640906 43.7065358,26.1190038 43.7065358,17.1458717 C43.7065358,8.63612075 37.1674264,4.54976604 25.6501585,4.54976604 C13.8375879,4.54976604 7.76254943,8.84676226 4.80940528,8.84676226 C3.92346264,8.84676226 3.37502189,8.46760755 3.37502189,7.75144151 C3.37502189,4.25486792 15.6516679,0 26.9579774,0 C41.0486943,0 50.2034415,6.57187925 50.2034415,16.8088453 C50.2034415,27.7198491 39.8252528,35.8504453 26.7048604,35.8504453 C22.5704604,35.8504453 17.9297962,35.0500226 14.4704045,33.8283321 L6.96098113,58.8520302 C6.24379019,61.2532981 3.54377208,63.1911547 1.13906974,63.1911547 Z" id="path-1"></path>
        <polygon id="path-3" points="3.96211321 1.27876226 6.46883019 7.5490566 6.46883019 1.27876226 8.17283019 1.27876226 8.17283019 10.153917 5.76241509 10.153917 3.208 3.54463396 3.21041509 10.153917 1.49116981 10.153917 1.49932075 1.27876226"></polygon>
        <polygon id="path-5" points="4.25856604 1.27876226 5.76 7.48143396 7.264 1.27876226 10.1836981 1.27876226 10.1836981 10.153917 8.37856604 10.153917 8.37856604 3.16271698 6.56271698 10.153917 4.84769811 10.153917 3.08981132 3.19483774 3.08981132 10.153917 1.29464151 10.153917 1.29464151 1.27876226"></polygon>
        <path d="M4.41524528,1.29322264 C5.13403774,1.36144906 5.7805283,1.78535849 6.04558491,2.44668679 C6.36,3.27504906 6.36407547,4.50538868 5.76935849,5.21858113 C5.45901887,5.52578113 5.04483019,5.72338113 4.53373585,5.80365283 C4.65690566,5.82712453 4.80377358,5.88362264 4.98158491,5.9157283 C5.52784906,6.01082264 5.85041509,6.29672453 6.03743396,6.70735094 C6.37433962,7.55916981 6.14007547,8.64750189 6.3109434,9.57064151 L6.42475472,10.1538566 L4.592,10.1538566 C4.27758491,9.18440755 4.66898113,7.83642264 4.24588679,6.95033962 C3.96015094,6.42206792 3.14716981,6.46529811 2.51501887,6.48351698 L2.51501887,10.1538566 L0.72709434,10.1538566 L0.718943396,1.27870189 C0.718943396,1.27870189 3.69886792,1.22406038 4.41524528,1.29322264 Z M2.51501887,2.60013585 L2.51501887,5.13491321 C2.51501887,5.13491321 3.73041509,5.30410566 4.16543396,4.7554717 C4.44633962,4.30501132 4.42460377,3.56588679 4.25554717,3.06911698 C3.94233962,2.45471698 3.11411321,2.60908679 2.51501887,2.60013585 Z" id="path-7"></path>
        <path d="M6.39969811,1.27876226 L8.85373585,10.153917 L6.95788679,10.153917 L6.42264151,8.20111698 L3.83366038,8.20111698 L3.29071698,10.153917 L1.48724528,10.153917 L3.9530566,1.27876226 L6.39969811,1.27876226 Z M5.11290566,2.88238491 L4.21101887,6.84172075 L4.20603774,6.84172075 L6.02007547,6.84172075 L5.15411321,3.08090566 L5.11290566,2.88238491 Z" id="path-9"></path>
        <polygon id="path-11" points="8.83577358 6.26670189 8.83577358 22.5625162 0.575849057 14.3845026 0.575849057 0.775984906 16.9770566 0.775984906 16.9770566 14.3749328"></polygon>
        <path d="M4.85479245,1.38849811 C5.38188679,1.47802264 5.98837736,1.99918491 6.15833962,2.61420377 C6.35169811,3.37032453 6.3554717,4.30489057 5.7829434,4.95880755 C5.52241509,5.24255094 5.16407547,5.38765283 4.80543396,5.52937358 C5.08467925,5.61797736 5.35743396,5.71738868 5.62007547,5.85849057 C6.46671698,6.37070189 6.51109434,7.53589434 6.36981132,8.48312453 C6.23849057,9.21731321 5.56679245,9.89901887 4.87230189,10.0629736 C4.59803774,10.1256453 4.24573585,10.1540528 3.91728302,10.1540528 L0.371471698,10.1540528 L0.371471698,1.27888302 C1.728,1.27548679 3.8605283,1.21898868 4.85479245,1.38849811 Z M3.51275472,4.88594717 C4.14958491,4.87206038 4.37237736,4.48982642 4.46686792,4.15855094 C4.56075472,3.70901132 4.51728302,3.20638491 4.13932075,2.84668679 L3.95879245,2.71609057 C3.70143396,2.53424906 2.82113208,2.57870189 2.22384906,2.58981132 C2.22384906,3.32401509 2.24135849,4.12704906 2.22384906,4.88594717 L3.51275472,4.88594717 Z M2.22384906,6.23453585 L2.22384906,8.80606792 L2.22384906,8.82736604 C2.95275472,8.78661132 3.69343396,8.9885434 4.2434717,8.58531321 C4.696,8.18179623 4.68392453,7.38028679 4.49886792,6.85696604 C4.11381132,6.05269434 2.99290566,6.26973585 2.22384906,6.23453585 Z" id="path-13"></path>
        <polygon id="path-15" points="2.01766038 3.13406792 3.17992453 1.98369811 2.02732075 0.841962264 0.866264151 1.99356981"></polygon>
        <path d="M5.90309434,1.27876226 L8.35607547,10.153917 L6.46158491,10.153917 L5.92513208,8.20111698 L3.33735849,8.20111698 L2.79471698,10.153917 L0.988981132,10.153917 L3.45464151,1.27876226 L5.90309434,1.27876226 Z M4.61433962,2.88330566 L3.71441509,6.84172075 L3.70913208,6.84172075 L5.5234717,6.84172075 L4.6570566,3.08090566 L4.61433962,2.88330566 Z" id="path-17"></path>
        <path d="M6.81781132,2.41846038 C7.42022642,3.76335094 7.28060377,5.46916226 7.28996226,6.98448302 C7.29237736,7.68563019 7.12966038,9.16297358 6.248,9.80486038 C5.62641509,10.2327698 4.88573585,10.3689358 4.07426415,10.3571925 C2.99773585,10.3396075 1.92528302,9.95830943 1.48558491,8.89714717 C1.03984906,7.75756981 1.13901887,6.1298717 1.13720755,4.70966038 C1.136,3.67782642 1.27290566,2.36597736 2.22520755,1.65246792 C3.20392453,1.03375094 4.78158491,1.05196981 5.83471698,1.49871698 C6.21343396,1.65678491 6.63245283,2.02543396 6.81781132,2.41846038 Z M5.38475472,4.16194717 C5.31607547,2.42031698 4.48845283,2.4610717 4.14415094,2.4610717 C3.77177358,2.4610717 3.12528302,2.65495849 3.06037736,4.11963774 L3.06037736,7.24012075 C3.16558491,8.77735849 3.54732075,9.07436981 4.23396226,9.07436981 C4.94943396,9.07436981 5.37796226,8.74771321 5.38475472,7.12063396 L5.38475472,4.16194717 Z" id="path-19"></path>
        <polygon id="path-21" points="1.28860377 16.5290717 1.28860377 0.227079245 9.42988679 8.33191698"></polygon>
        <path d="M1.31245283,4.33779623 C1.31245283,4.90712453 1.59411321,5.41809811 2.23969811,5.41809811 C2.82626415,5.41809811 3.55381132,5.05809811 3.46022642,3.1642566 C2.54460377,3.17568302 1.31245283,3.09479245 1.31245283,4.33779623 Z M3.48362264,5.23222642 L3.46022642,5.23222642 C3.16649057,5.90621887 2.70928302,6.19675472 1.96950943,6.19675472 C0.713962264,6.19675472 0.350037736,5.3949434 0.350037736,4.26771321 C0.350037736,2.49058113 2.11049057,2.4090717 3.46022642,2.44396981 C3.48362264,1.66561509 3.49524528,0.81749434 2.46264151,0.81749434 C1.8170566,0.81749434 1.47683019,1.24727547 1.53539623,1.86291321 L0.491018868,1.86291321 C0.538113208,0.550128302 1.24196226,0.0971924528 2.49781132,0.0971924528 C4.02324528,0.0971924528 4.42233962,0.87554717 4.42233962,1.86291321 L4.42233962,4.68636981 C4.42233962,5.15103396 4.46943396,5.62742642 4.53992453,6.08066415 L3.48362264,6.08066415 L3.48362264,5.23222642 Z" id="path-23"></path>
        <path d="M3.79486792,6.0805434 L3.79486792,2.01406792 C3.79486792,1.38670189 3.57192453,0.875728302 2.75018868,0.875728302 C1.69418868,0.875728302 1.54143396,1.80473962 1.54143396,2.60655094 L1.54143396,6.0805434 L0.579320755,6.0805434 L0.579320755,1.43301132 C0.579320755,1.02670189 0.555924528,0.619773585 0.520603774,0.213162264 L1.54143396,0.213162264 L1.54143396,0.96834717 L1.58883019,0.96834717 C1.96392453,0.3064 2.41026415,0.0970716981 3.17298113,0.0970716981 C4.44015094,0.0970716981 4.75728302,0.852271698 4.75728302,2.01406792 L4.75728302,6.0805434 L3.79486792,6.0805434 Z" id="path-25"></path>
        <path d="M0.605735849,9.0994717 L1.56815094,9.0994717 L1.56815094,3.23209057 L0.605735849,3.23209057 L0.605735849,9.0994717 Z M0.547471698,1.73376604 L1.62686792,1.73376604 L1.62686792,0.7112 L0.547471698,0.7112 L0.547471698,1.73376604 Z" id="path-27"></path>
        <path d="M3.74777358,6.0805434 L3.74777358,2.01406792 C3.74777358,1.38670189 3.52467925,0.875728302 2.70324528,0.875728302 C1.64739623,0.875728302 1.49449057,1.80473962 1.49449057,2.60655094 L1.49449057,6.0805434 L0.532075472,6.0805434 L0.532075472,1.43301132 C0.532075472,1.02670189 0.508679245,0.619773585 0.473509434,0.213162264 L1.49449057,0.213162264 L1.49449057,0.96834717 L1.54158491,0.96834717 C1.91713208,0.3064 2.36301887,0.0970716981 3.12588679,0.0970716981 C4.39290566,0.0970716981 4.71018868,0.852271698 4.71018868,2.01406792 L4.71018868,6.0805434 L3.74777358,6.0805434 Z" id="path-29"></path>
        <path d="M0.655849057,9.0994717 L1.61826415,9.0994717 L1.61826415,3.23209057 L0.655849057,3.23209057 L0.655849057,9.0994717 Z M0.597283019,1.73376604 L1.67683019,1.73376604 L1.67683019,0.7112 L0.597283019,0.7112 L0.597283019,1.73376604 Z" id="path-31"></path>
        <path d="M2.19758491,1.72259623 L2.19758491,0.595984906 L3.15954717,0.165916981 L3.15954717,1.72259623 L4.45071698,1.72259623 L4.45071698,2.44289811 L3.15954717,2.44289811 L3.15954717,6.03298113 C3.15954717,6.40469434 3.15954717,6.88108679 4.03969811,6.88108679 C4.11018868,6.88108679 4.26264151,6.85793208 4.47411321,6.83477736 L4.47411321,7.56650566 C4.15728302,7.58997736 3.84045283,7.65944151 3.52362264,7.65944151 C2.60784906,7.65944151 2.19758491,7.28771321 2.19758491,6.61402264 L2.19758491,2.44289811 L1.22324528,2.44289811 L1.22324528,1.72259623 L2.19758491,1.72259623 Z" id="path-33"></path>
        <path d="M1.11954717,9.0994717 L2.08196226,9.0994717 L2.08196226,3.23209057 L1.11954717,3.23209057 L1.11954717,9.0994717 Z M1.06083019,1.73376604 L2.1405283,1.73376604 L2.1405283,0.7112 L1.06083019,0.7112 L1.06083019,1.73376604 Z" id="path-35"></path>
        <path d="M1.92603774,4.33779623 C1.92603774,4.90712453 2.20769811,5.41809811 2.85328302,5.41809811 C3.43984906,5.41809811 4.16739623,5.05809811 4.07396226,3.1642566 C3.15833962,3.17568302 1.92603774,3.09479245 1.92603774,4.33779623 Z M4.09735849,5.23222642 L4.07396226,5.23222642 C3.78007547,5.90621887 3.32286792,6.19675472 2.58324528,6.19675472 C1.32769811,6.19675472 0.963773585,5.3949434 0.963773585,4.26771321 C0.963773585,2.49058113 2.72422642,2.4090717 4.07396226,2.44396981 C4.09735849,1.66561509 4.10883019,0.81749434 3.07622642,0.81749434 C2.43064151,0.81749434 2.09041509,1.24727547 2.14913208,1.86291321 L1.10460377,1.86291321 C1.15169811,0.550128302 1.85569811,0.0971924528 3.11154717,0.0971924528 C4.63683019,0.0971924528 5.03592453,0.87554717 5.03592453,1.86291321 L5.03592453,4.68636981 C5.03592453,5.15103396 5.08271698,5.62742642 5.15350943,6.08066415 L4.09735849,6.08066415 L4.09735849,5.23222642 Z" id="path-37"></path>
        <path d="M1.29841509,1.72259623 L1.29841509,0.595984906 L2.26083019,0.165916981 L2.26083019,1.72259623 L3.552,1.72259623 L3.552,2.44289811 L2.26083019,2.44289811 L2.26083019,6.03298113 C2.26083019,6.40469434 2.26083019,6.88108679 3.14098113,6.88108679 C3.21132075,6.88108679 3.36392453,6.85793208 3.57539623,6.83477736 L3.57539623,7.56650566 C3.25841509,7.58997736 2.94158491,7.65944151 2.62475472,7.65944151 C1.70913208,7.65944151 1.29841509,7.28771321 1.29841509,6.61402264 L1.29841509,2.44289811 L0.324528302,2.44289811 L0.324528302,1.72259623 L1.29841509,1.72259623 Z" id="path-39"></path>
        <path d="M0.220528302,9.0994717 L1.1829434,9.0994717 L1.1829434,3.23209057 L0.220528302,3.23209057 L0.220528302,9.0994717 Z M0.161509434,1.73376604 L1.24150943,1.73376604 L1.24150943,0.7112 L0.161509434,0.7112 L0.161509434,1.73376604 Z" id="path-41"></path>
        <polygon id="path-43" points="0.975698113 0.213162264 2.05524528 0.213162264 3.38128302 5.18549434 3.40498113 5.18549434 4.83683019 0.213162264 5.84573585 0.213162264 3.99169811 6.0805434 2.73615094 6.0805434"></polygon>
        <path d="M4.39667925,2.7344 C4.39667925,1.02673208 3.9154717,0.817403774 3.21132075,0.817403774 C2.6010566,0.817403774 2.09645283,1.10762264 2.08483019,2.7344 L4.39667925,2.7344 Z M2.08483019,3.45470189 C2.08483019,5.09289057 2.53086792,5.41800755 3.28181132,5.41800755 C3.93886792,5.41800755 4.27939623,4.89530566 4.31441509,4.30282264 L5.37056604,4.30282264 C5.35879245,5.60418113 4.54913208,6.19664906 3.30520755,6.19664906 C2.04966038,6.19664906 1.05192453,5.82492075 1.05192453,3.23394717 C1.05192453,1.51455094 1.25162264,0.0971018868 3.30520755,0.0971018868 C4.99516981,0.0971018868 5.41735849,1.01500377 5.41735849,2.95515472 L5.41735849,3.45470189 L2.08483019,3.45470189 Z" id="path-45"></path>
        <path d="M4.52875472,2.82724528 C4.52875472,1.22424151 4.02415094,0.875667925 3.28498113,0.875667925 C2.54566038,0.875667925 2.04075472,1.22424151 2.04075472,2.82724528 C2.04075472,4.7328 2.28739623,5.41821887 3.28498113,5.41821887 C4.28241509,5.41821887 4.52875472,4.7328 4.52875472,2.82724528 Z M1.03154717,3.2338566 C1.03154717,1.51446038 1.23109434,0.0970113208 3.28498113,0.0970113208 C5.33871698,0.0970113208 5.53796226,1.51446038 5.53796226,3.2338566 C5.53796226,5.82483019 4.54067925,6.19655849 3.28498113,6.19655849 C2.02913208,6.19655849 1.03154717,5.82483019 1.03154717,3.2338566 Z" id="path-47"></path>
        <path d="M1.5189434,3.23203019 L1.5189434,2.09338868 C1.5189434,0.908739623 2.36407547,0.676241509 3.22067925,0.676241509 C3.42037736,0.676241509 3.53750943,0.687984906 3.67818868,0.711139623 L3.67818868,1.3965434 C2.65720755,1.32677736 2.48135849,1.75684528 2.48135849,2.23323774 L2.48135849,3.23203019 L3.67818868,3.23203019 L3.67818868,3.95233208 L2.48135849,3.95233208 L2.48135849,9.09941132 L1.5189434,9.09941132 L1.5189434,3.95233208 L0.603622642,3.95233208 L0.603622642,3.23203019 L1.5189434,3.23203019 Z" id="path-49"></path>
    </defs>
    <g id="Logo" stroke="none" stroke-width="1" fill="none" fill-rule="evenodd">
        <g id="12-regular-header-with-digital-logo-original-size" transform="translate(-152.000000, -63.000000)">
            <g id="logo" transform="translate(152.000000, 63.000000)">
                <g id="Group-3">
                    <mask id="mask-2" fill="white">
                        <use xlink:href="#path-1"></use>
                    </mask>
                    <g id="Clip-2"></g>
                    <polygon id="Fill-1" fill="#FFFFFF" mask="url(#mask-2)" points="-7.54716981 87.5471698 150.943396 87.5471698 150.943396 -7.54716981 -7.54716981 -7.54716981"></polygon>
                </g>
                <g id="Group-6" transform="translate(197.735849, 54.339623)">
                    <mask id="mask-4" fill="white">
                        <use xlink:href="#path-3"></use>
                    </mask>
                    <g id="Clip-5"></g>
                    <polygon id="Fill-4" fill="#FFFFFF" mask="url(#mask-4)" points="-6.056 17.7010928 15.7199849 17.7010928 15.7199849 -6.26840151 -6.056 -6.26840151"></polygon>
                </g>
                <g id="Group-9" transform="translate(218.867925, 54.339623)">
                    <mask id="mask-6" fill="white">
                        <use xlink:href="#path-5"></use>
                    </mask>
                    <g id="Clip-8"></g>
                    <polygon id="Fill-7" fill="#FFFFFF" mask="url(#mask-6)" points="-6.2525283 17.7010928 17.7308075 17.7010928 17.7308075 -6.26840151 -6.2525283 -6.26840151"></polygon>
                </g>
                <g id="Group-12" transform="translate(230.943396, 54.339623)">
                    <mask id="mask-8" fill="white">
                        <use xlink:href="#path-7"></use>
                    </mask>
                    <g id="Clip-11"></g>
                    <polygon id="Fill-10" fill="#FFFFFF" mask="url(#mask-8)" points="-6.82822642 17.7010309 13.9719396 17.7010309 13.9719396 -6.28896151 -6.82822642 -6.28896151"></polygon>
                </g>
                <g id="Group-15" transform="translate(179.622642, 54.339623)">
                    <mask id="mask-10" fill="white">
                        <use xlink:href="#path-9"></use>
                    </mask>
                    <g id="Clip-14"></g>
                    <polygon id="Fill-13" fill="#FFFFFF" mask="url(#mask-10)" points="-6.05992453 17.7010928 16.4009057 17.7010928 16.4009057 -6.26840151 -6.05992453 -6.26840151"></polygon>
                </g>
                <g id="Group-18" transform="translate(158.490566, 52.830189)">
                    <mask id="mask-12" fill="white">
                        <use xlink:href="#path-11"></use>
                    </mask>
                    <g id="Clip-17"></g>
                    <polygon id="Fill-16" fill="#009286" mask="url(#mask-12)" points="-6.97132075 30.109686 24.5241509 30.109686 24.5241509 -6.77117434 -6.97132075 -6.77117434"></polygon>
                </g>
                <g id="Group-21" transform="translate(190.188679, 54.339623)">
                    <mask id="mask-14" fill="white">
                        <use xlink:href="#path-13"></use>
                    </mask>
                    <g id="Clip-20"></g>
                    <polygon id="Fill-19" fill="#FFFFFF" mask="url(#mask-14)" points="-7.17569811 17.7012166 13.9787321 17.7012166 13.9787321 -6.28000604 -7.17569811 -6.28000604"></polygon>
                </g>
                <g id="Group-24" transform="translate(206.792453, 57.358491)">
                    <mask id="mask-16" fill="white">
                        <use xlink:href="#path-15"></use>
                    </mask>
                    <g id="Clip-23"></g>
                    <polygon id="Fill-22" fill="#FFFFFF" mask="url(#mask-16)" points="-6.68090566 10.6812408 10.7271396 10.6812408 10.7271396 -6.70521962 -6.68090566 -6.70521962"></polygon>
                </g>
                <g id="Group-27" transform="translate(209.811321, 54.339623)">
                    <mask id="mask-18" fill="white">
                        <use xlink:href="#path-17"></use>
                    </mask>
                    <g id="Clip-26"></g>
                    <polygon id="Fill-25" fill="#FFFFFF" mask="url(#mask-18)" points="-6.55818868 17.7010928 15.9032604 17.7010928 15.9032604 -6.26840151 -6.55818868 -6.26840151"></polygon>
                </g>
                <g id="Group-30" transform="translate(238.490566, 54.339623)">
                    <mask id="mask-20" fill="white">
                        <use xlink:href="#path-19"></use>
                    </mask>
                    <g id="Clip-29"></g>
                    <polygon id="Fill-28" fill="#FFFFFF" mask="url(#mask-20)" points="-6.41811321 17.9050596 14.8448755 17.9050596 14.8448755 -6.3727517 -6.41811321 -6.3727517"></polygon>
                </g>
                <g id="Group-33" transform="translate(166.037736, 58.867925)">
                    <mask id="mask-22" fill="white">
                        <use xlink:href="#path-21"></use>
                    </mask>
                    <g id="Clip-32"></g>
                    <polygon id="Fill-31" fill="#F3C000" mask="url(#mask-22)" points="-6.25856604 24.0762415 16.9769358 24.0762415 16.9769358 -7.32009057 -6.25856604 -7.32009057"></polygon>
                </g>
                <g id="Group-36" transform="translate(158.490566, 39.245283)">
                    <mask id="mask-24" fill="white">
                        <use xlink:href="#path-23"></use>
                    </mask>
                    <g id="Clip-35"></g>
                    <polygon id="Fill-34" fill="#FFFFFF" mask="url(#mask-24)" points="-7.19713208 13.7439245 12.0870792 13.7439245 12.0870792 -7.44996226 -7.19713208 -7.44996226"></polygon>
                </g>
                <g id="Group-39" transform="translate(164.528302, 39.245283)">
                    <mask id="mask-26" fill="white">
                        <use xlink:href="#path-25"></use>
                    </mask>
                    <g id="Clip-38"></g>
                    <polygon id="Fill-37" fill="#FFFFFF" mask="url(#mask-26)" points="-7.02656604 13.6277132 12.3044226 13.6277132 12.3044226 -7.45008302 -7.02656604 -7.45008302"></polygon>
                </g>
                <g id="Group-42" transform="translate(173.584906, 36.226415)">
                    <mask id="mask-28" fill="white">
                        <use xlink:href="#path-27"></use>
                    </mask>
                    <g id="Clip-41"></g>
                    <polygon id="Fill-40" fill="#FFFFFF" mask="url(#mask-28)" points="-6.99969811 16.6466415 9.17399245 16.6466415 9.17399245 -6.83596981 -6.99969811 -6.83596981"></polygon>
                </g>
                <g id="Group-45" transform="translate(176.603774, 39.245283)">
                    <mask id="mask-30" fill="white">
                        <use xlink:href="#path-29"></use>
                    </mask>
                    <g id="Clip-44"></g>
                    <polygon id="Fill-43" fill="#FFFFFF" mask="url(#mask-30)" points="-7.07366038 13.6277132 12.2573283 13.6277132 12.2573283 -7.45008302 -7.07366038 -7.45008302"></polygon>
                </g>
                <g id="Group-48" transform="translate(182.641509, 36.226415)">
                    <mask id="mask-32" fill="white">
                        <use xlink:href="#path-31"></use>
                    </mask>
                    <g id="Clip-47"></g>
                    <polygon id="Fill-46" fill="#FFFFFF" mask="url(#mask-32)" points="-6.94988679 16.6466415 9.22412075 16.6466415 9.22412075 -6.83596981 -6.94988679 -6.83596981"></polygon>
                </g>
                <g id="Group-51" transform="translate(184.150943, 37.735849)">
                    <mask id="mask-34" fill="white">
                        <use xlink:href="#path-33"></use>
                    </mask>
                    <g id="Clip-50"></g>
                    <polygon id="Fill-49" fill="#FFFFFF" mask="url(#mask-34)" points="-6.32392453 15.2066113 12.0212679 15.2066113 12.0212679 -7.38125283 -6.32392453 -7.38125283"></polygon>
                </g>
                <g id="Group-54" transform="translate(188.679245, 36.226415)">
                    <mask id="mask-36" fill="white">
                        <use xlink:href="#path-35"></use>
                    </mask>
                    <g id="Clip-53"></g>
                    <polygon id="Fill-52" fill="#FFFFFF" mask="url(#mask-36)" points="-6.48633962 16.6466415 9.68766792 16.6466415 9.68766792 -6.83596981 -6.48633962 -6.83596981"></polygon>
                </g>
                <g id="Group-57" transform="translate(191.698113, 39.245283)">
                    <mask id="mask-38" fill="white">
                        <use xlink:href="#path-37"></use>
                    </mask>
                    <g id="Clip-56"></g>
                    <polygon id="Fill-55" fill="#FFFFFF" mask="url(#mask-38)" points="-6.58339623 13.7439245 12.7008151 13.7439245 12.7008151 -7.44996226 -6.58339623 -7.44996226"></polygon>
                </g>
                <g id="Group-60" transform="translate(197.735849, 37.735849)">
                    <mask id="mask-40" fill="white">
                        <use xlink:href="#path-39"></use>
                    </mask>
                    <g id="Clip-59"></g>
                    <polygon id="Fill-58" fill="#FFFFFF" mask="url(#mask-40)" points="-7.22264151 15.2066113 11.1225509 15.2066113 11.1225509 -7.38125283 -7.22264151 -7.38125283"></polygon>
                </g>
                <g id="Group-63" transform="translate(202.264151, 36.226415)">
                    <mask id="mask-42" fill="white">
                        <use xlink:href="#path-41"></use>
                    </mask>
                    <g id="Clip-62"></g>
                    <polygon id="Fill-61" fill="#FFFFFF" mask="url(#mask-42)" points="-7.38566038 16.6466415 8.78866415 16.6466415 8.78866415 -6.83596981 -7.38566038 -6.83596981"></polygon>
                </g>
                <g id="Group-66" transform="translate(203.773585, 39.245283)">
                    <mask id="mask-44" fill="white">
                        <use xlink:href="#path-43"></use>
                    </mask>
                    <g id="Clip-65"></g>
                    <polygon id="Fill-64" fill="#FFFFFF" mask="url(#mask-44)" points="-6.5714717 13.6277132 13.3929057 13.6277132 13.3929057 -7.33399245 -6.5714717 -7.33399245"></polygon>
                </g>
                <g id="Group-69" transform="translate(209.811321, 39.245283)">
                    <mask id="mask-46" fill="white">
                        <use xlink:href="#path-45"></use>
                    </mask>
                    <g id="Clip-68"></g>
                    <polygon id="Fill-67" fill="#FFFFFF" mask="url(#mask-46)" points="-6.49524528 13.7438189 12.9645434 13.7438189 12.9645434 -7.45006792 -6.49524528 -7.45006792"></polygon>
                </g>
                <g id="Group-72" transform="translate(218.867925, 39.245283)">
                    <mask id="mask-48" fill="white">
                        <use xlink:href="#path-47"></use>
                    </mask>
                    <g id="Clip-71"></g>
                    <polygon id="Fill-70" fill="#FFFFFF" mask="url(#mask-48)" points="-6.51562264 13.7437283 13.085117 13.7437283 13.085117 -7.45015849 -6.51562264 -7.45015849"></polygon>
                </g>
                <g id="Group-75" transform="translate(224.905660, 36.226415)">
                    <mask id="mask-50" fill="white">
                        <use xlink:href="#path-49"></use>
                    </mask>
                    <g id="Clip-74"></g>
                    <polygon id="Fill-73" fill="#FFFFFF" mask="url(#mask-50)" points="-6.94354717 16.6465811 11.225434 16.6465811 11.225434 -6.87091321 -6.94354717 -6.87091321"></polygon>
                </g>
            </g>
        </g>
    </g>
</svg>