<?xml version="1.0" encoding="UTF-8"?>
<svg width="163px" height="53px" viewBox="0 0 163 53" version="1.1" xmlns="http://www.w3.org/2000/svg" xmlns:xlink="http://www.w3.org/1999/xlink">
    <!-- Generator: Sketch 44.1 (41455) - http://www.bohemiancoding.com/sketch -->
    <title>logo</title>
    <desc>Created with Sketch.</desc>
    <defs>
        <path d="M28.78788,29.36072 C28.78788,30.28173 29.20712,30.83992 30.2692,30.89573 C30.54869,29.83518 30.71639,28.83044 30.71639,28.04897 C30.71639,27.49078 30.63254,27.35124 30.29715,27.35124 C29.45866,27.35124 28.78788,28.18852 28.78788,29.36072 Z M69.45425,27.37915 C67.69344,27.37915 65.70903,31.3981 64.70285,34.71933 C66.04442,34.07741 67.386,33.35176 68.42012,32.31912 C69.4263,31.31438 70.18094,29.891 70.18094,28.46761 C70.18094,27.71406 69.95734,27.37915 69.45425,27.37915 Z M24.23213,40.24539 C26.30038,40.24539 28.59223,36.17062 29.82201,32.45866 C27.69785,32.29121 26.24448,31.0911 26.07679,29.6119 C23.92468,32.04002 22.80671,36.03107 22.80671,38.09637 C22.80671,39.54766 23.3657,40.24539 24.23213,40.24539 Z M50.44866,40.18957 C53.38335,40.18957 56.20624,34.24487 56.20624,30.14218 C56.20624,28.18852 55.5634,27.71406 54.89262,27.71406 C53.57899,27.71406 51.53869,29.47235 49.86172,34.3565 C48.15681,39.32438 49.33069,40.18957 50.44866,40.18957 Z M10.03383,41.86414 C9.530744,41.86414 9.335099,41.69668 9.335099,41.36177 C9.335099,41.22222 9.363048,40.97104 9.502795,40.52449 C9.866137,39.29647 11.45925,34.66351 12.01824,32.84939 C12.32568,31.84466 12.57723,30.81201 12.57723,29.9189 C12.57723,29.08162 12.35363,28.49552 12.35363,28.10479 C12.35363,27.40706 12.99647,27.07214 14.17034,27.07214 C15.26037,27.07214 15.65166,27.35124 15.84731,29.77936 C17.52427,26.96051 19.81612,25.7604 21.57693,25.7604 C23.0862,25.7604 23.61724,26.6535 23.61724,27.37915 C23.61724,27.93734 23.28185,28.02106 22.86261,28.10479 C19.67638,28.74671 16.32245,29.50026 14.89703,33.85413 C14.44984,35.19379 13.77905,38.12428 13.49956,38.98947 C12.91262,40.80358 11.26361,41.86414 10.03383,41.86414 Z M72.83613,41.86414 C72.33304,41.86414 72.13739,41.69668 72.13739,41.36177 C72.13739,41.22222 72.16534,40.97104 72.30509,40.52449 C72.66843,39.29647 74.26155,34.66351 74.82054,32.84939 C75.12798,31.84466 75.37952,30.81201 75.37952,29.9189 C75.37952,29.08162 75.15593,28.49552 75.15593,28.10479 C75.15593,27.40706 75.79876,27.07214 76.97264,27.07214 C78.06267,27.07214 78.45396,27.35124 78.6496,29.77936 C80.32657,26.96051 82.61842,25.7604 84.37923,25.7604 C85.8885,25.7604 86.41954,26.6535 86.41954,27.37915 C86.41954,27.93734 86.08414,28.02106 85.6649,28.10479 C82.47867,28.74671 79.12474,29.50026 77.69932,33.85413 C77.25213,35.19379 76.58135,38.12428 76.30185,38.98947 C75.71492,40.80358 74.0659,41.86414 72.83613,41.86414 Z M82.75816,53 C80.24272,53 78.78935,52.1348078 78.78935,50.934702 C78.78935,50.09742 79.48808,49.706688 80.15887,49.706688 C81.50044,49.706688 81.75199,51.353344 83.4569,51.353344 C85.18976,51.353344 86.33569,49.622959 88.73934,39.04529 C87.34187,40.8594 85.24566,42.14323 83.59665,42.14323 C81.72404,42.14323 81.10915,40.49658 81.10915,38.59874 C81.10915,36.61717 81.77994,34.41232 82.25508,33.24013 C83.00971,31.3981 84.01589,30.33755 85.52515,30.33755 C86.11209,30.33755 86.30774,30.505 86.30774,30.81201 C86.30774,31.78884 84.46308,35.91943 84.46308,38.45919 C84.46308,39.29647 84.65872,39.51975 85.10591,39.51975 C86.83878,39.51975 89.13063,36.17062 89.88526,33.79831 C90.1368,33.01685 90.89144,30.22591 91.05914,29.66772 C91.56222,28.07688 92.98764,27.01632 94.30127,27.01632 C94.80435,27.01632 95,27.18378 95,27.5466 C95,27.68615 94.97205,27.88152 94.8323,28.35598 C94.41306,29.83518 93.54663,32.04002 93.07149,33.79831 C91.86967,38.31964 91.31068,40.52449 89.91321,46.050553 C88.65549,51.04634 86.50338,53 82.75816,53 Z M37.36834,41.97578 C35.16034,41.97578 33.03619,40.88731 33.03619,38.7941 C33.03619,37.62191 33.70697,36.86835 34.7411,36.86835 C35.43984,36.86835 35.91497,37.20326 35.91497,37.92891 L35.91497,38.96156 C35.91497,39.77093 36.47396,40.2733 37.42424,40.2733 C38.96146,40.2733 40.19123,38.90574 40.19123,37.34281 C40.19123,34.49605 36.22242,33.54713 35.97087,30.25382 C35.07649,30.86783 34.26596,31.48183 33.45543,31.87256 C32.6449,36.28225 29.12327,41.94787 24.14828,41.94787 C21.43719,41.94787 19.31303,40.24539 19.31303,37.06372 C19.31303,33.57504 21.91233,28.80253 26.35628,28.1327 C27.05502,26.79305 28.50838,25.7604 30.29715,25.7604 C32.589,25.7604 33.65107,27.46288 33.65107,30.198 C34.9647,29.50026 36.39011,28.16061 37.25655,27.40706 C38.37452,26.45814 39.82789,25.64876 41.78435,25.64876 C43.74081,25.64876 45.47367,26.48605 45.47367,27.74197 C45.47367,28.52343 44.80288,28.94207 44.10415,28.94207 C42.67873,28.94207 42.56693,27.29542 40.91792,27.29542 C39.93969,27.29542 39.3807,27.88152 39.3807,28.88626 C39.3807,31.70511 43.76876,32.40284 43.76876,36.33807 C43.76876,39.71511 40.49868,41.97578 37.36834,41.97578 Z M41.67255,53 C41.14151,53 40.97382,52.804634 40.97382,52.4697209 C40.97382,52.3301738 41.00177,52.1068984 41.14151,51.660348 L46.95499,32.84939 C47.31833,31.64929 47.56987,30.83992 47.56987,29.77936 C47.56987,28.60716 47.26243,27.93734 47.26243,27.49078 C47.26243,26.87678 47.87732,26.51395 48.93939,26.51395 C50.30891,26.51395 50.70021,27.12796 50.89585,29.19326 C52.09768,27.07214 54.05413,25.7604 55.87084,25.7604 C57.9391,25.7604 59.53222,27.46288 59.53222,30.33755 C59.53222,32.51448 58.63783,35.05424 57.21242,37.23117 C58.55399,36.84044 59.72786,36.44971 60.81789,36.05898 C61.48867,31.90047 65.09415,25.84413 69.67785,25.84413 C71.43866,25.84413 72.89203,26.73723 72.89203,28.60716 C72.89203,31.17483 70.15299,33.90995 64.28361,36.33807 C64.11592,36.92417 64.06002,37.53818 64.06002,38.09637 C64.06002,39.35229 64.70285,40.10585 65.79288,40.10585 C68.00088,40.10585 68.97911,37.11954 70.15299,37.11954 C70.43248,37.11954 70.65608,37.28699 70.65608,37.67773 C70.65608,38.98947 68.25243,42.00369 65.0662,42.00369 C62.66255,42.00369 60.81789,40.2733 60.73404,37.53818 C59.22477,38.04055 57.60371,38.51501 55.84289,38.98947 C54.24978,40.74776 52.29332,41.94787 50.22507,41.94787 C48.96734,41.94787 48.29656,41.50132 47.84937,40.8594 L45.11033,50.125329 C44.63519,51.716166 43.04207,53 41.67255,53 Z M0.7546337,41.86414 C0.1956458,41.86414 0,41.69668 0,41.33386 C0,41.19431 0.0279494,40.97104 0.1676964,40.52449 C2.124154,34.24487 4.695499,26.23486 5.981171,21.71353 C6.679906,19.22959 8.580465,12.53133 9.782289,8.45656 C10.25743,6.86572 12.15799,5.58189 13.66726,5.58189 C14.19829,5.58189 14.39394,5.74934 14.39394,6.08425 C14.39394,6.2238 14.36599,6.47499 14.22624,6.92154 L10.31333,20.01106 C12.38158,20.65298 14.92498,21.04371 17.16093,21.04371 C24.12033,21.04371 28.95558,17.30384 28.95558,11.35914 C28.95558,5.72143 24.62342,3.01422 16.99323,3.01422 C9.167402,3.01422 5.142689,5.86098 3.186231,5.86098 C2.599294,5.86098 2.235952,5.60979 2.235952,5.13533 C2.235952,2.81885 10.36923,0 17.85966,0 C27.19476,0 33.25978,4.35387 33.25978,11.13586 C33.25978,18.3644 26.38423,23.75092 17.69197,23.75092 C14.95293,23.75092 11.87849,23.22064 9.586643,22.41127 L4.61165,38.98947 C4.136511,40.58031 2.347749,41.86414 0.7546337,41.86414 Z" id="path-1"></path>
        <polygon id="path-3" points="2.6249 0.84718 4.2856 5.00125 4.2856 0.84718 5.4145 0.84718 5.4145 6.72697 3.8176 6.72697 2.1253 2.34832 2.1269 6.72697 0.9879 6.72697 0.9933 0.84718"></polygon>
        <polygon id="path-5" points="2.8213 0.84718 3.816 4.95645 4.8124 0.84718 6.7467 0.84718 6.7467 6.72697 5.5508 6.72697 5.5508 2.0953 4.3478 6.72697 3.2116 6.72697 2.047 2.11658 2.047 6.72697 0.8577 6.72697 0.8577 0.84718"></polygon>
        <path d="M2.9251,0.85676 C3.4013,0.90196 3.8296,1.1828 4.0052,1.62093 C4.2135,2.16972 4.2162,2.98482 3.8222,3.45731 C3.6166,3.66083 3.3422,3.79174 3.0036,3.84492 C3.0852,3.86047 3.1825,3.8979 3.3003,3.91917 C3.6622,3.98217 3.8759,4.17158 3.9998,4.44362 C4.223,5.00795 4.0678,5.72897 4.181,6.34055 L4.2564,6.72693 L3.0422,6.72693 C2.8339,6.08467 3.0932,5.19163 2.8129,4.6046 C2.6236,4.25462 2.085,4.28326 1.6662,4.29533 L1.6662,6.72693 L0.4817,6.72693 L0.4763,0.84714 C0.4763,0.84714 2.4505,0.81094 2.9251,0.85676 Z M1.6662,1.72259 L1.6662,3.40188 C1.6662,3.40188 2.4714,3.51397 2.7596,3.1505 C2.9457,2.85207 2.9313,2.3624 2.8193,2.03329 C2.6118,1.62625 2.0631,1.72852 1.6662,1.72259 Z" id="path-7"></path>
        <path d="M4.2398,0.84718 L5.8656,6.72697 L4.6096,6.72697 L4.255,5.43324 L2.5398,5.43324 L2.1801,6.72697 L0.9853,6.72697 L2.6189,0.84718 L4.2398,0.84718 Z M3.3873,1.90958 L2.7898,4.53264 L2.7865,4.53264 L3.9883,4.53264 L3.4146,2.0411 L3.3873,1.90958 Z" id="path-9"></path>
        <polygon id="path-11" points="5.8537 4.15169 5.8537 14.947667 0.3815 9.529733 0.3815 0.51409 11.2473 0.51409 11.2473 9.523393"></polygon>
        <path d="M3.2163,0.91988 C3.5655,0.97919 3.9673,1.32446 4.0799,1.73191 C4.208,2.23284 4.2105,2.85199 3.8312,3.28521 C3.6586,3.47319 3.4212,3.56932 3.1836,3.66321 C3.3686,3.72191 3.5493,3.78777 3.7233,3.88125 C4.2842,4.22059 4.3136,4.99253 4.22,5.62007 C4.133,6.10647 3.688,6.5581 3.2279,6.66672 C3.0462,6.70824 2.8128,6.72706 2.5952,6.72706 L0.2461,6.72706 L0.2461,0.84726 C1.1448,0.84501 2.5576,0.80758 3.2163,0.91988 Z M2.3272,3.23694 C2.7491,3.22774 2.8967,2.97451 2.9593,2.75504 C3.0215,2.45722 2.9927,2.12423 2.7423,1.88593 L2.6227,1.79941 C2.4522,1.67894 1.869,1.70839 1.4733,1.71575 C1.4733,2.20216 1.4849,2.73417 1.4733,3.23694 L2.3272,3.23694 Z M1.4733,4.13038 L1.4733,5.83402 L1.4733,5.84813 C1.9562,5.82113 2.4469,5.95491 2.8113,5.68777 C3.1111,5.42044 3.1031,4.88944 2.9805,4.54274 C2.7254,4.00991 1.9828,4.1537 1.4733,4.13038 Z" id="path-13"></path>
        <polygon id="path-15" points="1.3367 2.07632 2.1067 1.3142 1.3431 0.5578 0.5739 1.32074"></polygon>
        <path d="M3.9108,0.84718 L5.5359,6.72697 L4.2808,6.72697 L3.9254,5.43324 L2.211,5.43324 L1.8515,6.72697 L0.6552,6.72697 L2.2887,0.84718 L3.9108,0.84718 Z M3.057,1.91019 L2.4608,4.53264 L2.4573,4.53264 L3.6593,4.53264 L3.0853,2.0411 L3.057,1.91019 Z" id="path-17"></path>
        <path d="M4.5168,1.60223 C4.9159,2.49322 4.8234,3.62332 4.8296,4.62722 C4.8312,5.09173 4.7234,6.07047 4.1393,6.49572 C3.7275,6.77921 3.2368,6.86942 2.6992,6.86164 C1.986,6.84999 1.2755,6.59738 0.9842,5.89436 C0.6889,5.13939 0.7546,4.06104 0.7534,3.12015 C0.7526,2.43656 0.8433,1.56746 1.4742,1.09476 C2.1226,0.68486 3.1678,0.69693 3.8655,0.9929 C4.1164,1.09762 4.394,1.34185 4.5168,1.60223 Z M3.5674,2.75729 C3.5219,1.60346 2.9736,1.63046 2.7455,1.63046 C2.4988,1.63046 2.0705,1.75891 2.0275,2.72926 L2.0275,4.79658 C2.0972,5.815 2.3501,6.01177 2.805,6.01177 C3.279,6.01177 3.5629,5.79536 3.5674,4.71742 L3.5674,2.75729 Z" id="path-19"></path>
        <polygon id="path-21" points="0.8537 10.95051 0.8537 0.15044 6.2473 5.519895"></polygon>
        <path d="M0.8695,2.87379 C0.8695,3.25097 1.0561,3.58949 1.4838,3.58949 C1.8724,3.58949 2.3544,3.35099 2.2924,2.09632 C1.6858,2.10389 0.8695,2.0503 0.8695,2.87379 Z M2.3079,3.46635 L2.2924,3.46635 C2.0978,3.91287 1.7949,4.10535 1.3048,4.10535 C0.473,4.10535 0.2319,3.57415 0.2319,2.82736 C0.2319,1.65001 1.3982,1.59601 2.2924,1.61913 C2.3079,1.10347 2.3156,0.54159 1.6315,0.54159 C1.2038,0.54159 0.9784,0.82632 1.0172,1.23418 L0.3253,1.23418 C0.3565,0.36446 0.8228,0.06439 1.6548,0.06439 C2.6654,0.06439 2.9298,0.58005 2.9298,1.23418 L2.9298,3.10472 C2.9298,3.41256 2.961,3.72817 3.0077,4.02844 L2.3079,4.02844 L2.3079,3.46635 Z" id="path-23"></path>
        <path d="M2.5141,4.02836 L2.5141,1.33432 C2.5141,0.91869 2.3664,0.58017 1.822,0.58017 C1.1224,0.58017 1.0212,1.19564 1.0212,1.72684 L1.0212,4.02836 L0.3838,4.02836 L0.3838,0.94937 C0.3838,0.68019 0.3683,0.4106 0.3449,0.14122 L1.0212,0.14122 L1.0212,0.64153 L1.0526,0.64153 C1.3011,0.20299 1.5968,0.06431 2.1021,0.06431 C2.9416,0.06431 3.1517,0.56463 3.1517,1.33432 L3.1517,4.02836 L2.5141,4.02836 Z" id="path-25"></path>
        <path d="M0.4013,6.0284 L1.0389,6.0284 L1.0389,2.14126 L0.4013,2.14126 L0.4013,6.0284 Z M0.3627,1.14862 L1.0778,1.14862 L1.0778,0.47117 L0.3627,0.47117 L0.3627,1.14862 Z" id="path-27"></path>
        <path d="M2.4829,4.02836 L2.4829,1.33432 C2.4829,0.91869 2.3351,0.58017 1.7909,0.58017 C1.0914,0.58017 0.9901,1.19564 0.9901,1.72684 L0.9901,4.02836 L0.3525,4.02836 L0.3525,0.94937 C0.3525,0.68019 0.337,0.4106 0.3137,0.14122 L0.9901,0.14122 L0.9901,0.64153 L1.0213,0.64153 C1.2701,0.20299 1.5655,0.06431 2.0709,0.06431 C2.9103,0.06431 3.1205,0.56463 3.1205,1.33432 L3.1205,4.02836 L2.4829,4.02836 Z" id="path-29"></path>
        <path d="M0.4345,6.0284 L1.0721,6.0284 L1.0721,2.14126 L0.4345,2.14126 L0.4345,6.0284 Z M0.3957,1.14862 L1.1109,1.14862 L1.1109,0.47117 L0.3957,0.47117 L0.3957,1.14862 Z" id="path-31"></path>
        <path d="M1.4559,1.14122 L1.4559,0.39484 L2.0932,0.10992 L2.0932,1.14122 L2.9486,1.14122 L2.9486,1.61842 L2.0932,1.61842 L2.0932,3.99685 C2.0932,4.24311 2.0932,4.55872 2.6763,4.55872 C2.723,4.55872 2.824,4.54338 2.9641,4.52804 L2.9641,5.01281 C2.7542,5.02836 2.5443,5.07438 2.3344,5.07438 C1.7277,5.07438 1.4559,4.82811 1.4559,4.38179 L1.4559,1.61842 L0.8104,1.61842 L0.8104,1.14122 L1.4559,1.14122 Z" id="path-33"></path>
        <path d="M0.7417,6.0284 L1.3793,6.0284 L1.3793,2.14126 L0.7417,2.14126 L0.7417,6.0284 Z M0.7028,1.14862 L1.4181,1.14862 L1.4181,0.47117 L0.7028,0.47117 L0.7028,1.14862 Z" id="path-35"></path>
        <path d="M1.276,2.87379 C1.276,3.25097 1.4626,3.58949 1.8903,3.58949 C2.2789,3.58949 2.7609,3.35099 2.699,2.09632 C2.0924,2.10389 1.276,2.0503 1.276,2.87379 Z M2.7145,3.46635 L2.699,3.46635 C2.5043,3.91287 2.2014,4.10535 1.7114,4.10535 C0.8796,4.10535 0.6385,3.57415 0.6385,2.82736 C0.6385,1.65001 1.8048,1.59601 2.699,1.61913 C2.7145,1.10347 2.7221,0.54159 2.038,0.54159 C1.6103,0.54159 1.3849,0.82632 1.4238,1.23418 L0.7318,1.23418 C0.763,0.36446 1.2294,0.06439 2.0614,0.06439 C3.0719,0.06439 3.3363,0.58005 3.3363,1.23418 L3.3363,3.10472 C3.3363,3.41256 3.3673,3.72817 3.4142,4.02844 L2.7145,4.02844 L2.7145,3.46635 Z" id="path-37"></path>
        <path d="M0.8602,1.14122 L0.8602,0.39484 L1.4978,0.10992 L1.4978,1.14122 L2.3532,1.14122 L2.3532,1.61842 L1.4978,1.61842 L1.4978,3.99685 C1.4978,4.24311 1.4978,4.55872 2.0809,4.55872 C2.1275,4.55872 2.2286,4.54338 2.3687,4.52804 L2.3687,5.01281 C2.1587,5.02836 1.9488,5.07438 1.7389,5.07438 C1.1323,5.07438 0.8602,4.82811 0.8602,4.38179 L0.8602,1.61842 L0.215,1.61842 L0.215,1.14122 L0.8602,1.14122 Z" id="path-39"></path>
        <path d="M0.1461,6.0284 L0.7837,6.0284 L0.7837,2.14126 L0.1461,2.14126 L0.1461,6.0284 Z M0.107,1.14862 L0.8225,1.14862 L0.8225,0.47117 L0.107,0.47117 L0.107,1.14862 Z" id="path-41"></path>
        <polygon id="path-43" points="0.6464 0.14122 1.3616 0.14122 2.2401 3.43539 2.2558 3.43539 3.2044 0.14122 3.8728 0.14122 2.6445 4.02836 1.8127 4.02836"></polygon>
        <path d="M2.9128,1.81154 C2.9128,0.68021 2.594,0.54153 2.1275,0.54153 C1.7232,0.54153 1.3889,0.7338 1.3812,1.81154 L2.9128,1.81154 Z M1.3812,2.28874 C1.3812,3.37404 1.6767,3.58943 2.1742,3.58943 C2.6095,3.58943 2.8351,3.24314 2.8583,2.85062 L3.558,2.85062 C3.5502,3.71277 3.0138,4.10528 2.1897,4.10528 C1.3579,4.10528 0.6969,3.85901 0.6969,2.14249 C0.6969,1.00339 0.8292,0.06433 2.1897,0.06433 C3.3093,0.06433 3.589,0.67244 3.589,1.95779 L3.589,2.28874 L1.3812,2.28874 Z" id="path-45"></path>
        <path d="M3.0003,1.87305 C3.0003,0.81106 2.666,0.58013 2.1763,0.58013 C1.6865,0.58013 1.352,0.81106 1.352,1.87305 C1.352,3.13548 1.5154,3.58957 2.1763,3.58957 C2.8371,3.58957 3.0003,3.13548 3.0003,1.87305 Z M0.6834,2.14243 C0.6834,1.00333 0.8156,0.06427 2.1763,0.06427 C3.5369,0.06427 3.6689,1.00333 3.6689,2.14243 C3.6689,3.85895 3.0082,4.10522 2.1763,4.10522 C1.3443,4.10522 0.6834,3.85895 0.6834,2.14243 Z" id="path-47"></path>
        <path d="M1.0063,2.14122 L1.0063,1.38687 C1.0063,0.60204 1.5662,0.44801 2.1337,0.44801 C2.266,0.44801 2.3436,0.45579 2.4368,0.47113 L2.4368,0.92521 C1.7604,0.87899 1.6439,1.16391 1.6439,1.47952 L1.6439,2.14122 L2.4368,2.14122 L2.4368,2.61842 L1.6439,2.61842 L1.6439,6.02836 L1.0063,6.02836 L1.0063,2.61842 L0.3999,2.61842 L0.3999,2.14122 L1.0063,2.14122 Z" id="path-49"></path>
    </defs>
    <g id="MRKT-44-Top-navigation" stroke="none" stroke-width="1" fill="none" fill-rule="evenodd">
        <g id="MRKT-44-navigation-desktop-sticky-dropdown" transform="translate(-152.000000, -15.000000)">
            <g id="logo" transform="translate(152.000000, 15.000000)">
                <g id="Group-3">
                    <mask id="mask-2" fill="white">
                        <use xlink:href="#path-1"></use>
                    </mask>
                    <g id="Clip-2"></g>
                    <polygon id="Fill-1" fill="#253239" mask="url(#mask-2)" points="-5 58 100 58 100 -5 -5 -5"></polygon>
                </g>
                <g id="Group-6" transform="translate(131.000000, 36.000000)">
                    <mask id="mask-4" fill="white">
                        <use xlink:href="#path-3"></use>
                    </mask>
                    <g id="Clip-5"></g>
                    <polygon id="Fill-4" fill="#737373" mask="url(#mask-4)" points="-4.0121 11.726974 10.41449 11.726974 10.41449 -4.152816 -4.0121 -4.152816"></polygon>
                </g>
                <g id="Group-9" transform="translate(145.000000, 36.000000)">
                    <mask id="mask-6" fill="white">
                        <use xlink:href="#path-5"></use>
                    </mask>
                    <g id="Clip-8"></g>
                    <polygon id="Fill-7" fill="#737373" mask="url(#mask-6)" points="-4.1423 11.726974 11.74666 11.726974 11.74666 -4.152816 -4.1423 -4.152816"></polygon>
                </g>
                <g id="Group-12" transform="translate(153.000000, 36.000000)">
                    <mask id="mask-8" fill="white">
                        <use xlink:href="#path-7"></use>
                    </mask>
                    <g id="Clip-11"></g>
                    <polygon id="Fill-10" fill="#737373" mask="url(#mask-8)" points="-4.5237 11.726933 9.25641 11.726933 9.25641 -4.166437 -4.5237 -4.166437"></polygon>
                </g>
                <g id="Group-15" transform="translate(119.000000, 36.000000)">
                    <mask id="mask-10" fill="white">
                        <use xlink:href="#path-9"></use>
                    </mask>
                    <g id="Clip-14"></g>
                    <polygon id="Fill-13" fill="#737373" mask="url(#mask-10)" points="-4.0147 11.726974 10.8656 11.726974 10.8656 -4.152816 -4.0147 -4.152816"></polygon>
                </g>
                <g id="Group-18" transform="translate(105.000000, 35.000000)">
                    <mask id="mask-12" fill="white">
                        <use xlink:href="#path-11"></use>
                    </mask>
                    <g id="Clip-17"></g>
                    <polygon id="Fill-16" fill="#009286" mask="url(#mask-12)" points="-4.6185 19.947667 16.24725 19.947667 16.24725 -4.485903 -4.6185 -4.485903"></polygon>
                </g>
                <g id="Group-21" transform="translate(126.000000, 36.000000)">
                    <mask id="mask-14" fill="white">
                        <use xlink:href="#path-13"></use>
                    </mask>
                    <g id="Clip-20"></g>
                    <polygon id="Fill-19" fill="#737373" mask="url(#mask-14)" points="-4.7539 11.727056 9.26091 11.727056 9.26091 -4.160504 -4.7539 -4.160504"></polygon>
                </g>
                <g id="Group-24" transform="translate(137.000000, 38.000000)">
                    <mask id="mask-16" fill="white">
                        <use xlink:href="#path-15"></use>
                    </mask>
                    <g id="Clip-23"></g>
                    <polygon id="Fill-22" fill="#FFFFFF" mask="url(#mask-16)" points="-4.4261 7.076322 7.10673 7.076322 7.10673 -4.442208 -4.4261 -4.442208"></polygon>
                </g>
                <g id="Group-27" transform="translate(139.000000, 36.000000)">
                    <mask id="mask-18" fill="white">
                        <use xlink:href="#path-17"></use>
                    </mask>
                    <g id="Clip-26"></g>
                    <polygon id="Fill-25" fill="#737373" mask="url(#mask-18)" points="-4.3448 11.726974 10.53591 11.726974 10.53591 -4.152816 -4.3448 -4.152816"></polygon>
                </g>
                <g id="Group-30" transform="translate(158.000000, 36.000000)">
                    <mask id="mask-20" fill="white">
                        <use xlink:href="#path-19"></use>
                    </mask>
                    <g id="Clip-29"></g>
                    <polygon id="Fill-28" fill="#737373" mask="url(#mask-20)" points="-4.252 11.862102 9.83473 11.862102 9.83473 -4.221948 -4.252 -4.221948"></polygon>
                </g>
                <g id="Group-33" transform="translate(110.000000, 39.000000)">
                    <mask id="mask-22" fill="white">
                        <use xlink:href="#path-21"></use>
                    </mask>
                    <g id="Clip-32"></g>
                    <polygon id="Fill-31" fill="#F3C000" mask="url(#mask-22)" points="-4.1463 15.95051 11.24722 15.95051 11.24722 -4.84956 -4.1463 -4.84956"></polygon>
                </g>
                <g id="Group-36" transform="translate(105.000000, 26.000000)">
                    <mask id="mask-24" fill="white">
                        <use xlink:href="#path-23"></use>
                    </mask>
                    <g id="Clip-35"></g>
                    <polygon id="Fill-34" fill="#737373" mask="url(#mask-24)" points="-4.7681 9.10535 8.00769 9.10535 8.00769 -4.9356 -4.7681 -4.9356"></polygon>
                </g>
                <g id="Group-39" transform="translate(109.000000, 26.000000)">
                    <mask id="mask-26" fill="white">
                        <use xlink:href="#path-25"></use>
                    </mask>
                    <g id="Clip-38"></g>
                    <polygon id="Fill-37" fill="#737373" mask="url(#mask-26)" points="-4.6551 9.02836 8.15168 9.02836 8.15168 -4.93568 -4.6551 -4.93568"></polygon>
                </g>
                <g id="Group-42" transform="translate(115.000000, 24.000000)">
                    <mask id="mask-28" fill="white">
                        <use xlink:href="#path-27"></use>
                    </mask>
                    <g id="Clip-41"></g>
                    <polygon id="Fill-40" fill="#737373" mask="url(#mask-28)" points="-4.6373 11.0284 6.07777 11.0284 6.07777 -4.52883 -4.6373 -4.52883"></polygon>
                </g>
                <g id="Group-45" transform="translate(117.000000, 26.000000)">
                    <mask id="mask-30" fill="white">
                        <use xlink:href="#path-29"></use>
                    </mask>
                    <g id="Clip-44"></g>
                    <polygon id="Fill-43" fill="#737373" mask="url(#mask-30)" points="-4.6863 9.02836 8.12048 9.02836 8.12048 -4.93568 -4.6863 -4.93568"></polygon>
                </g>
                <g id="Group-48" transform="translate(121.000000, 24.000000)">
                    <mask id="mask-32" fill="white">
                        <use xlink:href="#path-31"></use>
                    </mask>
                    <g id="Clip-47"></g>
                    <polygon id="Fill-46" fill="#737373" mask="url(#mask-32)" points="-4.6043 11.0284 6.11098 11.0284 6.11098 -4.52883 -4.6043 -4.52883"></polygon>
                </g>
                <g id="Group-51" transform="translate(122.000000, 25.000000)">
                    <mask id="mask-34" fill="white">
                        <use xlink:href="#path-33"></use>
                    </mask>
                    <g id="Clip-50"></g>
                    <polygon id="Fill-49" fill="#737373" mask="url(#mask-34)" points="-4.1896 10.07438 7.96409 10.07438 7.96409 -4.89008 -4.1896 -4.89008"></polygon>
                </g>
                <g id="Group-54" transform="translate(125.000000, 24.000000)">
                    <mask id="mask-36" fill="white">
                        <use xlink:href="#path-35"></use>
                    </mask>
                    <g id="Clip-53"></g>
                    <polygon id="Fill-52" fill="#737373" mask="url(#mask-36)" points="-4.2972 11.0284 6.41808 11.0284 6.41808 -4.52883 -4.2972 -4.52883"></polygon>
                </g>
                <g id="Group-57" transform="translate(127.000000, 26.000000)">
                    <mask id="mask-38" fill="white">
                        <use xlink:href="#path-37"></use>
                    </mask>
                    <g id="Clip-56"></g>
                    <polygon id="Fill-55" fill="#737373" mask="url(#mask-38)" points="-4.3615 9.10535 8.41429 9.10535 8.41429 -4.9356 -4.3615 -4.9356"></polygon>
                </g>
                <g id="Group-60" transform="translate(131.000000, 25.000000)">
                    <mask id="mask-40" fill="white">
                        <use xlink:href="#path-39"></use>
                    </mask>
                    <g id="Clip-59"></g>
                    <polygon id="Fill-58" fill="#737373" mask="url(#mask-40)" points="-4.785 10.07438 7.36869 10.07438 7.36869 -4.89008 -4.785 -4.89008"></polygon>
                </g>
                <g id="Group-63" transform="translate(134.000000, 24.000000)">
                    <mask id="mask-42" fill="white">
                        <use xlink:href="#path-41"></use>
                    </mask>
                    <g id="Clip-62"></g>
                    <polygon id="Fill-61" fill="#737373" mask="url(#mask-42)" points="-4.893 11.0284 5.82249 11.0284 5.82249 -4.52883 -4.893 -4.52883"></polygon>
                </g>
                <g id="Group-66" transform="translate(135.000000, 26.000000)">
                    <mask id="mask-44" fill="white">
                        <use xlink:href="#path-43"></use>
                    </mask>
                    <g id="Clip-65"></g>
                    <polygon id="Fill-64" fill="#737373" mask="url(#mask-44)" points="-4.3536 9.02836 8.8728 9.02836 8.8728 -4.85877 -4.3536 -4.85877"></polygon>
                </g>
                <g id="Group-69" transform="translate(139.000000, 26.000000)">
                    <mask id="mask-46" fill="white">
                        <use xlink:href="#path-45"></use>
                    </mask>
                    <g id="Clip-68"></g>
                    <polygon id="Fill-67" fill="#737373" mask="url(#mask-46)" points="-4.3031 9.10528 8.58901 9.10528 8.58901 -4.93567 -4.3031 -4.93567"></polygon>
                </g>
                <g id="Group-72" transform="translate(145.000000, 26.000000)">
                    <mask id="mask-48" fill="white">
                        <use xlink:href="#path-47"></use>
                    </mask>
                    <g id="Clip-71"></g>
                    <polygon id="Fill-70" fill="#737373" mask="url(#mask-48)" points="-4.3166 9.10522 8.66889 9.10522 8.66889 -4.93573 -4.3166 -4.93573"></polygon>
                </g>
                <g id="Group-75" transform="translate(149.000000, 24.000000)">
                    <mask id="mask-50" fill="white">
                        <use xlink:href="#path-49"></use>
                    </mask>
                    <g id="Clip-74"></g>
                    <polygon id="Fill-73" fill="#737373" mask="url(#mask-50)" points="-4.6001 11.02836 7.43685 11.02836 7.43685 -4.55198 -4.6001 -4.55198"></polygon>
                </g>
            </g>
        </g>
    </g>
</svg>